<svg id="Capa_1" enable-background="new 0 0 509.53 509.53" height="512" viewBox="0 0 509.53 509.53" width="512" xmlns="http://www.w3.org/2000/svg"><g><path d="m467.122 259.258v-30.108c0-25.996-5.019-51.269-14.917-75.115-1.588-3.827-5.979-5.64-9.802-4.052-3.826 1.588-5.64 5.976-4.052 9.802 9.138 22.015 13.771 45.353 13.771 69.365v27.525c-.879-.038-1.76-.067-2.648-.067h-30.794v-67.451c0-29.508-5.5-58.374-15.809-84.206 7.811 8.318 14.911 17.449 21.178 27.325 2.22 3.498 6.854 4.534 10.351 2.315 3.498-2.219 4.534-6.854 2.314-10.351-36.223-57.088-98.156-91.17-165.671-91.17h-32.554c-108.119 0-196.08 87.961-196.08 196.08v30.108c-24.53 7.556-42.409 30.43-42.409 57.406v99.74c0 33.115 26.941 60.057 60.057 60.057h389.417c33.115 0 60.057-26.941 60.057-60.057v-99.74c-.001-26.976-17.88-49.85-42.409-57.406zm-126.483 157.8c-4.142 0-7.5 3.358-7.5 7.5v36.902h-27.771v-36.767c0-4.142-3.358-7.5-7.5-7.5s-7.5 3.358-7.5 7.5v36.767h-27.771v-36.767c0-4.142-3.358-7.5-7.5-7.5s-7.5 3.358-7.5 7.5v36.767h-27.771v-36.767c0-4.142-3.358-7.5-7.5-7.5s-7.5 3.358-7.5 7.5v36.767h-27.771v-36.784c0-4.142-3.358-7.5-7.5-7.5s-7.5 3.358-7.5 7.5v36.784h-27.771v-189.853h27.771v34.726c0 4.142 3.358 7.5 7.5 7.5s7.5-3.358 7.5-7.5v-34.726h27.771v34.709c0 4.142 3.358 7.5 7.5 7.5s7.5-3.358 7.5-7.5v-34.709h27.771v34.709c0 4.142 3.358 7.5 7.5 7.5s7.5-3.358 7.5-7.5v-34.709h27.771v34.709c0 4.142 3.358 7.5 7.5 7.5s7.5-3.358 7.5-7.5v-34.709h27.771v34.845c0 4.142 3.358 7.5 7.5 7.5s7.5-3.358 7.5-7.5v-34.845h27.771v189.853h-27.771v-36.902c0-4.142-3.358-7.5-7.5-7.5zm-221.354-145.451v189.853h-27.77v-189.853zm80.383-219.334c-13.596 34.145-21.531 83.879-21.531 136.883v67.451h-28.532v-67.451c0-52.293 12.699-100.522 34.896-132.867 4.967-1.554 10.029-2.889 15.167-4.016zm29.942-3.983c-5.757 33.619-9.139 85.168-9.139 140.867v67.451h-27.333v-67.451c0-56.003 8.986-107.81 24.138-139.837 4.072-.479 8.183-.829 12.334-1.03zm62.643 1.026c15.153 32.027 24.14 83.836 24.14 139.841v67.451h-27.333v-67.451c0-55.677-3.377-107.229-9.13-140.85 4.137.199 8.246.535 12.323 1.009zm32.734 6.914c22.223 32.346 34.937 80.602 34.937 132.927v67.451h-28.532v-67.451c0-53.029-7.946-102.776-21.553-136.921 5.123 1.112 10.174 2.45 15.148 3.994zm-60.326-8.16c5.91 32.597 9.399 84.573 9.399 141.086v67.451h-38.59v-67.451c0-56.523 3.492-108.492 9.404-141.086h19.787zm126.248 223.537h27.771v189.853h-27.771zm12.77-15h-28.754v-67.451c0-46.756-9.786-90.685-27.264-124.185 8.76 4.083 17.18 8.859 25.178 14.302 19.892 30.544 30.841 69.51 30.841 109.883v67.451zm-346.27-27.458c0-47.85 18.664-91.417 49.084-123.824-8.624 21.631-13.831 45.328-15.245 70.126-.236 4.135 2.925 7.679 7.061 7.915.146.008.29.012.434.012 3.946 0 7.253-3.083 7.481-7.073 2.05-35.932 12.519-69.319 30.264-96.694 7.998-5.473 16.456-10.317 25.302-14.471-17.425 33.478-27.184 77.334-27.184 124.015v67.451h-28.754v-47.198c0-4.142-3.358-7.5-7.5-7.5s-7.5 3.358-7.5 7.5v47.198h-30.795c-.888 0-1.769.029-2.648.067zm-42.409 187.255v-99.74c0-15.027 7.402-28.35 18.744-36.541v172.821c-11.342-8.19-18.744-21.513-18.744-36.54zm33.744 43.617v-186.974c3.616-.939 7.407-1.44 11.313-1.44h16.458v189.853h-16.458c-3.906 0-7.697-.501-11.313-1.439zm384.936 1.439v-189.853h15.794c4.147 0 8.16.575 11.977 1.629v186.596c-3.817 1.054-7.83 1.629-11.977 1.629h-15.794zm60.85-45.056c0 14.735-7.11 27.84-18.08 36.065v-171.87c10.969 8.226 18.08 21.331 18.08 36.065z"/><path d="m361.952 377.482v-23.954c0-13.626-11.085-24.712-24.711-24.712h-119.641c-4.142 0-7.5 3.358-7.5 7.5s3.358 7.5 7.5 7.5h119.64c5.355 0 9.711 4.357 9.711 9.712v23.954c0 5.355-4.356 9.712-9.711 9.712h-167.007c-5.355 0-9.712-4.357-9.712-9.712v-23.954c0-5.355 4.357-9.712 9.712-9.712h15.404c4.142 0 7.5-3.358 7.5-7.5s-3.358-7.5-7.5-7.5h-15.404c-13.626 0-24.712 11.086-24.712 24.712v23.954c0 13.626 11.086 24.712 24.712 24.712h167.007c13.626 0 24.712-11.086 24.712-24.712z"/></g></svg>